<svg width="23" height="21" viewBox="0 0 23 21" fill="none" xmlns="http://www.w3.org/2000/svg">
<path d="M5.35036 0.0526142C4.87301 0.237434 4.72067 0.809927 5.05583 1.16604C5.32497 1.45004 4.8527 1.432 12.7492 1.432H19.9754L10.0121 10.2763C1.09997 18.1965 0.0487956 19.1432 0.0183269 19.2919C-0.0375325 19.5669 0.0335612 19.7788 0.241764 19.9636C0.449967 20.1484 0.688639 20.2115 0.998405 20.162C1.16598 20.1349 2.23239 19.2018 11.1496 11.2906L21.1179 2.44626L21.1281 8.92398C21.1433 15.3837 21.1433 15.4017 21.25 15.5234C21.448 15.7623 21.6105 15.8345 21.9304 15.8345C22.2504 15.8345 22.4129 15.7623 22.6109 15.5234L22.7175 15.4017V7.92325V0.444794L22.6109 0.323084C22.555 0.255466 22.4433 0.156294 22.3672 0.106709C22.23 0.0120449 22.225 0.0120449 13.8664 0.00302887C6.99059 -0.00598717 5.47731 0.00302887 5.35036 0.0526142Z" fill="black"/>
</svg>
